<svg xmlns="http://www.w3.org/2000/svg" viewBox="0 0 14 8.66"><defs><style>.cls-1{fill:#00a79d;}.cls-2{fill:#231f20;}</style></defs><title>favicon</title><g id="Layer_2" data-name="Layer 2"><g id="Layer_1-2" data-name="Layer 1"><path class="cls-1" d="M4.17,4.81v.43H0V4.81ZM0,8.62H4.17V8.19H0ZM0,6.93H4.17V6.5H0ZM13.76,0H10V.42h3.24L10,3.47l.29.31L13.55.69V3.78H14V.21A.21.21,0,0,0,13.76,0Z"/><polygon class="cls-2" points="4.18 0.42 4.18 0 0 0 0 0.42 1.88 0.42 1.88 3.36 0 3.36 0 3.77 4.18 3.77 4.18 3.36 2.3 3.36 2.3 0.42 4.18 0.42"/><path class="cls-2" d="M9.31,2.17V.43A.42.42,0,0,0,8.89,0H5.14a.42.42,0,0,0-.42.42V2.17h.42V.43H6.81V3.37H5.13v.41H8.9V3.37H7.23V.43H8.9V2.17Z"/><path class="cls-2" d="M13.79,6.51H11.52v.43h2.05a4.78,4.78,0,0,1-.09.76v0a.55.55,0,0,1-.46.45h0A9.56,9.56,0,0,1,12,8.23c-.35,0-1.13-.05-1.2-.06a.56.56,0,0,1-.45-.48V7.63a5.62,5.62,0,0,1-.08-.92,5.47,5.47,0,0,1,.09-1,.59.59,0,0,1,.42-.43A10.14,10.14,0,0,1,12,5.21c.33,0,.67,0,1,0H13a.58.58,0,0,1,.46.51,1.46,1.46,0,0,1,0,.2H14c0-.08,0-.24,0-.28a1,1,0,0,0-.83-.85H13c-.35,0-.7,0-1,0s-.86,0-1.28.07h0a1,1,0,0,0-.77.77,5.47,5.47,0,0,0,0,2.08v.06a1,1,0,0,0,.81.82c.05,0,.88.07,1.26.07A10.38,10.38,0,0,0,13,8.6h0a1,1,0,0,0,.84-.78h0v0A5.16,5.16,0,0,0,14,6.72a.21.21,0,0,0-.21-.21Z"/><path class="cls-2" d="M8.74,7.59a4.52,4.52,0,0,1-.15.61H5.36a.83.83,0,0,1,0-.24.85.85,0,0,1,.59-.81H6L8.5,6.53h0a.91.91,0,0,0,.63-.87.9.9,0,0,0-.79-.91c-.44,0-.84-.06-1.27-.06a9.77,9.77,0,0,0-1.13.06h-.1A1,1,0,0,0,5,5.6v.05a3.47,3.47,0,0,0-.06.45H5.3c0-.13,0-.25,0-.38v0a.63.63,0,0,1,.52-.51H6c.36,0,.67,0,1.09,0s.8,0,1.23.06h0a.47.47,0,0,1,.4.49.48.48,0,0,1-.32.47l-2.51.61-.06,0A1.26,1.26,0,0,0,4.91,8,1.18,1.18,0,0,0,5,8.36a.39.39,0,0,0,.37.27H8.62A.41.41,0,0,0,9,8.32a5.93,5.93,0,0,0,.16-.73H8.74Z"/></g></g></svg>